<?xml version="1.0" encoding="UTF-8" standalone="no"?>
<!-- Created with Inkscape (http://www.inkscape.org/) -->
<svg
   xmlns:dc="http://purl.org/dc/elements/1.1/"
   xmlns:cc="http://web.resource.org/cc/"
   xmlns:rdf="http://www.w3.org/1999/02/22-rdf-syntax-ns#"
   xmlns:svg="http://www.w3.org/2000/svg"
   xmlns="http://www.w3.org/2000/svg"
   xmlns:sodipodi="http://sodipodi.sourceforge.net/DTD/sodipodi-0.dtd"
   xmlns:inkscape="http://www.inkscape.org/namespaces/inkscape"
   width="100"
   height="100"
   id="svg3209"
   sodipodi:version="0.32"
   inkscape:version="0.45.1"
   version="1.0"
   sodipodi:docbase="/home/ke/java/TuLiPA trunk/src/de/tuebingen/ui/images"
   sodipodi:docname="logo-shape.svg"
   inkscape:output_extension="org.inkscape.output.svg.inkscape">
  <defs
     id="defs3211" />
  <sodipodi:namedview
     id="base"
     pagecolor="#ffffff"
     bordercolor="#666666"
     borderopacity="1.0"
     inkscape:pageopacity="0.0"
     inkscape:pageshadow="2"
     inkscape:zoom="2.8"
     inkscape:cx="84.305606"
     inkscape:cy="49.412493"
     inkscape:document-units="px"
     inkscape:current-layer="layer1"
     width="100px"
     height="100px"
     inkscape:window-width="910"
     inkscape:window-height="627"
     inkscape:window-x="396"
     inkscape:window-y="52" />
  <metadata
     id="metadata3214">
    <rdf:RDF>
      <cc:Work
         rdf:about="">
        <dc:format>image/svg+xml</dc:format>
        <dc:type
           rdf:resource="http://purl.org/dc/dcmitype/StillImage" />
      </cc:Work>
    </rdf:RDF>
  </metadata>
  <g
     inkscape:label="Ebene 1"
     inkscape:groupmode="layer"
     id="layer1">
    <path
       style="fill:#000000"
       d="M 30.067537,98.510354 C 30.067537,97.910164 34.342537,91.777456 39.567537,84.882103 L 49.06754,72.345097 L 49.06754,61.654575 L 49.06754,50.964054 L 56.85206,43.225187 L 64.63658,35.486321 L 81.35206,33.172164 C 90.54557,31.899378 98.07103,31.117425 98.07531,31.434491 C 98.07958,31.751557 97.1174,39.210974 95.93713,48.010974 L 93.79117,64.010974 L 78.57939,79.385705 L 63.36761,94.760436 L 49.96757,96.603534 C 42.597547,97.617244 35.105037,98.706504 33.317537,99.024124 C 31.283567,99.385524 30.067537,99.193294 30.067537,98.510354 z M 20.786257,93.260974 C 18.907907,90.923474 14.377777,85.00485 10.719307,80.108476 L 4.0675369,71.205979 L 4.0675369,49.484166 L 4.0675369,27.762352 L 14.121557,14.636663 C 19.651267,7.4175341 24.311447,1.5109741 24.477527,1.5109741 C 24.643597,1.5109741 29.344287,7.5438451 34.923497,14.917355 L 45.067537,28.323736 L 45.067537,49.565904 L 45.067537,70.808072 L 34.917937,84.159523 C 29.335657,91.502821 24.640787,97.510974 24.484887,97.510974 C 24.328987,97.510974 22.664607,95.598474 20.786257,93.260974 z M 49.06754,35.44638 C 49.06754,26.354294 48.9372,25.782947 46.108177,22.4732 C 44.480527,20.568976 43.138207,18.560974 43.125247,18.010974 C 43.101787,17.015215 64.02027,4.5057441 65.69044,4.5167571 C 66.17284,4.5199381 67.79876,9.3574381 69.30359,15.266757 C 70.80842,21.176077 72.30751,26.962705 72.6349,28.125931 C 73.1746,30.043461 72.74788,30.28723 68.06362,30.737328 C 63.26606,31.198314 62.40324,31.723818 55.98231,38.095551 L 49.06754,44.957335 L 49.06754,35.44638 z "
       id="path2236" />
  </g>
</svg>
